<svg width="65" height="65" viewBox="0 0 65 65" fill="none" xmlns="http://www.w3.org/2000/svg">
<rect width="65" height="65" rx="10" fill="white" fill-opacity="0.9"/>
<g clip-path="url(#clip0_670_2387)">
<path d="M26.3332 19.6666H24.9998C23.1332 19.6666 22.1998 19.6666 21.4865 20.0299C20.8593 20.3494 20.3493 20.8593 20.0298 21.4866C19.6665 22.1999 19.6665 23.1333 19.6665 24.9999V26.3333M26.3332 19.6666H39.6665M26.3332 19.6666V16.3333M19.6665 26.3333V40.9999C19.6665 42.8666 19.6665 43.7999 20.0298 44.5133C20.3494 45.1404 20.8593 45.6503 21.4865 45.9699C22.1982 46.3333 23.1315 46.3333 24.9948 46.3333H41.0048C42.8682 46.3333 43.7998 46.3333 44.5115 45.9699C45.1398 45.6499 45.6498 45.1399 45.9698 44.5133C46.3332 43.7999 46.3332 42.8699 46.3332 41.0066V26.3333M19.6665 26.3333H46.3332M39.6665 19.6666H40.9998C42.8665 19.6666 43.7998 19.6666 44.5115 20.0299C45.1398 20.3499 45.6498 20.8583 45.9698 21.4866C46.3332 22.1983 46.3332 23.1316 46.3332 24.9949V26.3333M39.6665 19.6666V16.3333M39.6665 39.6666H39.6698V39.6699H39.6665V39.6666ZM32.9998 39.6666H33.0032V39.6699H32.9998V39.6666ZM26.3332 39.6666H26.3365V39.6699H26.3332V39.6666ZM39.6698 32.9999V33.0033H39.6665V32.9999H39.6698ZM32.9998 32.9999H33.0032V33.0033H32.9998V32.9999ZM26.3332 32.9999H26.3365V33.0033H26.3332V32.9999Z" stroke="url(#paint0_linear_670_2387)" stroke-width="3.33333" stroke-linecap="round" stroke-linejoin="round"/>
</g>
<defs>
<linearGradient id="paint0_linear_670_2387" x1="22.4813" y1="22.9999" x2="43.1161" y2="39.7407" gradientUnits="userSpaceOnUse">
<stop stop-color="#F15A65"/>
<stop offset="1" stop-color="#A42717"/>
</linearGradient>
<clipPath id="clip0_670_2387">
<rect width="40" height="40" fill="white" transform="translate(13 13)"/>
</clipPath>
</defs>
</svg>
