<svg width="40" height="40" viewBox="0 0 40 40" fill="none" xmlns="http://www.w3.org/2000/svg">
<path d="M15.2041 26.8844H24.932M15.2041 26.8844L14.1156 22.4626C13.0952 20.2857 11.3946 19.1293 10.9864 16.7483C10.5782 11.1701 14.1156 6.47619 20.102 6C25.9524 6.27211 29.5578 11.3741 29.1497 16.7483C28.9843 18.9252 26.5646 20.6939 26.0204 22.4626L24.932 26.8844M15.2041 26.8844C15.2041 30.1497 15.2041 31.3742 17.1769 31.3742M24.932 26.8844C24.932 30.2177 24.932 31.3742 23.1633 31.3742M17.1769 31.3742H23.1633M17.1769 31.3742C17.1769 34.1633 17.1769 34.9116 20.2041 34.9116C23.1633 34.9116 23.1633 34.1633 23.1633 31.3742M6.22449 20.0136L8.60544 19.1293M35 14.9116H32.3469M6.22449 9.80952L8.53741 10.8299M31.8027 10.8299L33.9796 9.80952M7.65306 14.9116H5M31.8027 19.1293L33.9796 20.0136" stroke="#1E88E5" stroke-width="1.9" stroke-linecap="round" stroke-linejoin="round"/>
<path d="M18.1293 12.7352C17.9932 11.4427 18.6657 10.9356 20.0341 10.8984C21.4605 11.0672 22.0069 11.7828 21.8708 12.7352C21.7347 13.6876 20.9184 13.9597 20.4422 14.5719C19.9634 15.3504 19.9517 15.8034 19.966 16.6127M20.0341 20.2182V19.4018" stroke="#1E88E5" stroke-width="1.9" stroke-linecap="round"/>
</svg>
