<svg width="31" height="34" viewBox="0 0 31 34" fill="none" xmlns="http://www.w3.org/2000/svg">
<path d="M2.56006 16.1083L14.0501 4.61665C14.8609 3.79657 15.8259 3.14488 16.8895 2.69905C17.9531 2.25322 19.0944 2.02205 20.2477 2.01883C21.4009 2.01562 22.5435 2.24042 23.6096 2.6803C24.6756 3.12019 25.6442 3.76649 26.4597 4.58203C27.2751 5.39757 27.9213 6.36627 28.361 7.43241C28.8008 8.49856 29.0254 9.64112 29.022 10.7944C29.0187 11.9477 28.7873 13.0889 28.3414 14.1524C27.8954 15.216 27.2436 16.1809 26.4234 16.9916L13.1667 30.25C12.0727 31.344 10.5889 31.9586 9.04173 31.9586C7.49455 31.9586 6.01074 31.344 4.91673 30.25C3.82271 29.156 3.20809 27.6722 3.20809 26.125C3.20809 24.5778 3.82271 23.094 4.91673 22L18.1767 8.74165C18.7269 8.21046 19.4637 7.91663 20.2285 7.92343C20.9932 7.93023 21.7247 8.23712 22.2654 8.778C22.806 9.31888 23.1126 10.0505 23.1191 10.8152C23.1256 11.58 22.8315 12.3167 22.3001 12.8666L10.8084 24.3566" stroke="url(#paint0_linear_1801_1121)" stroke-width="3.33333" stroke-linecap="round" stroke-linejoin="round"/>
<defs>
<linearGradient id="paint0_linear_1801_1121" x1="5.35327" y1="8.67209" x2="25.9222" y2="25.2646" gradientUnits="userSpaceOnUse">
<stop stop-color="#E66EDF"/>
<stop offset="1" stop-color="#B23373"/>
</linearGradient>
</defs>
</svg>
