<svg width="34" height="34" viewBox="0 0 34 34" fill="none" xmlns="http://www.w3.org/2000/svg">
<path d="M15.3335 15.3C15.3335 14.8579 15.5091 14.434 15.8217 14.1214C16.1342 13.8089 16.5581 13.6333 17.0002 13.6333C17.4422 13.6333 17.8661 13.8089 18.1787 14.1214C18.4912 14.434 18.6668 14.8579 18.6668 15.3V25.3C18.6668 25.742 18.4912 26.1659 18.1787 26.4785C17.8661 26.791 17.4422 26.9666 17.0002 26.9666C16.5581 26.9666 16.1342 26.791 15.8217 26.4785C15.5091 26.1659 15.3335 25.742 15.3335 25.3V15.3ZM17.0002 7.08496C16.5581 7.08496 16.1342 7.26056 15.8217 7.57312C15.5091 7.88568 15.3335 8.3096 15.3335 8.75163C15.3335 9.19366 15.5091 9.61758 15.8217 9.93014C16.1342 10.2427 16.5581 10.4183 17.0002 10.4183C17.4422 10.4183 17.8661 10.2427 18.1787 9.93014C18.4912 9.61758 18.6668 9.19366 18.6668 8.75163C18.6668 8.3096 18.4912 7.88568 18.1787 7.57312C17.8661 7.26056 17.4422 7.08496 17.0002 7.08496Z" fill="url(#paint0_linear_1801_1913)"/>
<path fill-rule="evenodd" clip-rule="evenodd" d="M17.0002 0.333252C7.79516 0.333252 0.333496 7.79492 0.333496 16.9999C0.333496 26.2049 7.79516 33.6666 17.0002 33.6666C26.2052 33.6666 33.6668 26.2049 33.6668 16.9999C33.6668 7.79492 26.2052 0.333252 17.0002 0.333252ZM3.66683 16.9999C3.66683 20.5361 5.07159 23.9275 7.57207 26.428C10.0726 28.9285 13.4639 30.3333 17.0002 30.3333C20.5364 30.3333 23.9278 28.9285 26.4283 26.428C28.9287 23.9275 30.3335 20.5361 30.3335 16.9999C30.3335 13.4637 28.9287 10.0723 26.4283 7.57183C23.9278 5.07134 20.5364 3.66659 17.0002 3.66659C13.4639 3.66659 10.0726 5.07134 7.57207 7.57183C5.07159 10.0723 3.66683 13.4637 3.66683 16.9999Z" fill="url(#paint1_linear_1801_1913)"/>
<defs>
<linearGradient id="paint0_linear_1801_1913" x1="15.6853" y1="11.5031" x2="19.8645" y2="12.1426" gradientUnits="userSpaceOnUse">
<stop stop-color="#A1DF37"/>
<stop offset="1" stop-color="#5AB438"/>
</linearGradient>
<linearGradient id="paint1_linear_1801_1913" x1="3.85201" y1="7.74066" x2="27.1853" y2="29.037" gradientUnits="userSpaceOnUse">
<stop stop-color="#A1DF37"/>
<stop offset="1" stop-color="#5AB438"/>
</linearGradient>
</defs>
</svg>
