<svg width="30" height="34" viewBox="0 0 30 34" fill="none" xmlns="http://www.w3.org/2000/svg">
<path d="M8.33317 5.66659H6.99984C5.13317 5.66659 4.19984 5.66659 3.4865 6.02992C2.85926 6.3494 2.34932 6.85934 2.02984 7.48659C1.6665 8.19992 1.6665 9.13325 1.6665 10.9999V12.3333M8.33317 5.66659H21.6665M8.33317 5.66659V2.33325M1.6665 12.3333V26.9999C1.6665 28.8666 1.6665 29.7999 2.02984 30.5133C2.34941 31.1404 2.85932 31.6503 3.4865 31.9699C4.19817 32.3333 5.1315 32.3333 6.99484 32.3333H23.0048C24.8682 32.3333 25.7998 32.3333 26.5115 31.9699C27.1398 31.6499 27.6498 31.1399 27.9698 30.5133C28.3332 29.7999 28.3332 28.8699 28.3332 27.0066V12.3333M1.6665 12.3333H28.3332M21.6665 5.66659H22.9998C24.8665 5.66659 25.7998 5.66659 26.5115 6.02992C27.1398 6.34992 27.6498 6.85825 27.9698 7.48659C28.3332 8.19825 28.3332 9.13159 28.3332 10.9949V12.3333M21.6665 5.66659V2.33325M21.6665 25.6666H21.6698V25.6699H21.6665V25.6666ZM14.9998 25.6666H15.0032V25.6699H14.9998V25.6666ZM8.33317 25.6666H8.3365V25.6699H8.33317V25.6666ZM21.6698 18.9999V19.0033H21.6665V18.9999H21.6698ZM14.9998 18.9999H15.0032V19.0033H14.9998V18.9999ZM8.33317 18.9999H8.3365V19.0033H8.33317V18.9999Z" stroke="url(#paint0_linear_1801_1079)" stroke-width="3.33333" stroke-linecap="round" stroke-linejoin="round"/>
<defs>
<linearGradient id="paint0_linear_1801_1079" x1="4.48132" y1="8.99992" x2="25.1161" y2="25.7407" gradientUnits="userSpaceOnUse">
<stop stop-color="#F15A65"/>
<stop offset="1" stop-color="#A42717"/>
</linearGradient>
</defs>
</svg>
