<svg width="34" height="34" viewBox="0 0 34 34" fill="none" xmlns="http://www.w3.org/2000/svg">
<path d="M25.3333 32C25.3333 29.7899 24.4554 27.6702 22.8926 26.1074C21.3298 24.5446 19.2101 23.6667 17 23.6667C14.7899 23.6667 12.6702 24.5446 11.1074 26.1074C9.54464 27.6702 8.66667 29.7899 8.66667 32M25.3333 32H26.6717C28.535 32 29.4667 32 30.1783 31.6367C30.8064 31.3169 31.3169 30.8064 31.6367 30.1783C32 29.4667 32 28.535 32 26.6717V7.32833C32 5.465 32 4.53167 31.6367 3.82C31.3166 3.19264 30.8061 2.68272 30.1783 2.36333C29.4667 2 28.5333 2 26.6667 2H7.33333C5.46667 2 4.53333 2 3.82 2.36333C3.19275 2.68281 2.68281 3.19275 2.36333 3.82C2 4.53333 2 5.46667 2 7.33333V26.6667C2 28.5333 2 29.4667 2.36333 30.1783C2.68333 30.8067 3.19167 31.3167 3.82 31.6367C4.53167 32 5.465 32 7.32833 32H8.66667M25.3333 32H8.66667M17 18.6667C15.6739 18.6667 14.4021 18.1399 13.4645 17.2022C12.5268 16.2645 12 14.9927 12 13.6667C12 12.3406 12.5268 11.0688 13.4645 10.1311C14.4021 9.19345 15.6739 8.66667 17 8.66667C18.3261 8.66667 19.5979 9.19345 20.5355 10.1311C21.4732 11.0688 22 12.3406 22 13.6667C22 14.9927 21.4732 16.2645 20.5355 17.2022C19.5979 18.1399 18.3261 18.6667 17 18.6667Z" stroke="url(#paint0_linear_1801_602)" stroke-width="3.33333" stroke-linecap="round" stroke-linejoin="round"/>
<defs>
<linearGradient id="paint0_linear_1801_602" x1="5.16667" y1="8.66667" x2="26.1667" y2="27.8333" gradientUnits="userSpaceOnUse">
<stop stop-color="#72B1E9"/>
<stop offset="1" stop-color="#415BB6"/>
</linearGradient>
</defs>
</svg>
