<svg width="40" height="40" viewBox="0 0 40 40" fill="none" xmlns="http://www.w3.org/2000/svg">
<path d="M20 16.3333V33.3333M20 16.3333C20 13.5333 20 12.1333 20.545 11.0633C21.0239 10.1227 21.7882 9.35789 22.7283 8.87825C23.8 8.33325 25.2 8.33325 28 8.33325H32.3333C33.2667 8.33325 33.7333 8.33325 34.09 8.51492C34.4033 8.67492 34.6567 8.92992 34.8183 9.24325C35 9.59992 35 10.0666 35 10.9999V25.6666C35 26.5999 35 27.0666 34.8167 27.4233C34.6574 27.7367 34.403 27.9916 34.09 28.1516C33.735 28.3333 33.2683 28.3333 32.3367 28.3333H27.615C26.05 28.3333 25.265 28.3333 24.555 28.5499C23.9268 28.7405 23.3423 29.0532 22.835 29.4699C22.2617 29.9416 21.8267 30.5932 20.9583 31.8949L20 33.3333M20 16.3333C20 13.5333 20 12.1333 19.455 11.0633C18.9756 10.1225 18.2108 9.35761 17.27 8.87825C16.2 8.33325 14.8 8.33325 12 8.33325H7.66667C6.73333 8.33325 6.26667 8.33325 5.91 8.51492C5.59641 8.67471 5.34145 8.92966 5.18167 9.24325C5 9.59992 5 10.0666 5 10.9999V25.6666C5 26.5999 5 27.0666 5.18167 27.4233C5.34145 27.7368 5.59641 27.9918 5.91 28.1516C6.26667 28.3333 6.73167 28.3333 7.66333 28.3333H12.385C13.95 28.3333 14.7317 28.3333 15.4433 28.5499C16.0717 28.7399 16.66 29.0533 17.1667 29.4699C17.7383 29.9399 18.17 30.5866 19.03 31.8799L20 33.3333" stroke="url(#paint0_linear_1801_1025)" stroke-width="3.33333" stroke-linecap="round" stroke-linejoin="round"/>
<defs>
<linearGradient id="paint0_linear_1801_1025" x1="8.16667" y1="13.8888" x2="25.6673" y2="33.0561" gradientUnits="userSpaceOnUse">
<stop stop-color="#BD6AE7"/>
<stop offset="1" stop-color="#6A3CB5"/>
</linearGradient>
</defs>
</svg>
