<svg width="34" height="34" viewBox="0 0 34 34" fill="none" xmlns="http://www.w3.org/2000/svg">
<path d="M12 7H12.5617C12.9683 7 13.1733 7 13.365 7.04667C13.535 7.08667 13.6983 7.155 13.8483 7.24667C14.015 7.34833 14.16 7.49333 14.4483 7.78L19.5533 12.885C19.84 13.1733 19.9833 13.3183 20.0867 13.485C20.1783 13.635 20.2467 13.7983 20.2867 13.9683C20.3333 14.1583 20.3333 14.36 20.3333 14.7583V27M12 7H4.66667C3.73333 7 3.26667 7 2.91 7.18167C2.59641 7.34145 2.34145 7.59641 2.18167 7.91C2 8.26667 2 8.73333 2 9.66667V29.3333C2 30.2667 2 30.7333 2.18167 31.09C2.34145 31.4036 2.59641 31.6585 2.91 31.8183C3.26667 32 3.73167 32 4.66333 32H17.6683C18.6 32 19.0683 32 19.4233 31.8183C19.737 31.6586 19.992 31.4037 20.1517 31.09C20.3333 30.7333 20.3333 30.2667 20.3333 29.3333V27M12 7V12.6667C12 13.6 12 14.0667 12.1817 14.4233C12.3415 14.7369 12.5964 14.9919 12.91 15.1517C13.2667 15.3333 13.7317 15.3333 14.6633 15.3333H20.3333M20.3333 27H29.3367C30.2667 27 30.7333 27 31.0917 26.8183C31.4042 26.6582 31.6579 26.4032 31.8167 26.09C32 25.7333 32 25.2667 32 24.3333V9.75833C32 9.36 32 9.15833 31.9533 8.96833C31.9133 8.79833 31.845 8.635 31.7533 8.485C31.65 8.31833 31.5067 8.17333 31.22 7.885L26.115 2.78C25.8267 2.49333 25.6817 2.34833 25.515 2.24667C25.365 2.155 25.2017 2.08667 25.0317 2.04667C24.84 2 24.635 2 24.2283 2H23.6667M13.6667 7V4.66667C13.6667 3.73333 13.6667 3.26667 13.8483 2.91C14.0081 2.59641 14.2631 2.34145 14.5767 2.18167C14.9333 2 15.4 2 16.3333 2H23.6667M23.6667 2V7.66667C23.6667 8.6 23.6667 9.06667 23.8483 9.42333C24.0081 9.73692 24.2631 9.99188 24.5767 10.1517C24.9333 10.3333 25.3983 10.3333 26.33 10.3333H32" stroke="url(#paint0_linear_1801_1433)" stroke-width="3.33333" stroke-linecap="round" stroke-linejoin="round"/>
<defs>
<linearGradient id="paint0_linear_1801_1433" x1="5.16667" y1="8.66667" x2="26.1667" y2="27.8333" gradientUnits="userSpaceOnUse">
<stop stop-color="#E6D92B"/>
<stop offset="1" stop-color="#EFA612"/>
</linearGradient>
</defs>
</svg>
