<svg width="33" height="33" viewBox="0 0 33 33" fill="none" xmlns="http://www.w3.org/2000/svg">
<path d="M11.6665 4.66659H6.99984C5.13317 4.66659 4.19984 4.66659 3.4865 5.02992C2.85926 5.3494 2.34932 5.85934 2.02984 6.48659C1.6665 7.19992 1.6665 8.13325 1.6665 9.99992V25.9999C1.6665 27.8666 1.6665 28.7999 2.02984 29.5133C2.34941 30.1404 2.85932 30.6503 3.4865 30.9699C4.19817 31.3333 5.1315 31.3333 6.99484 31.3333H23.0048C24.8682 31.3333 25.7998 31.3333 26.5115 30.9699C27.1398 30.6499 27.6498 30.1399 27.9698 29.5133C28.3332 28.7999 28.3332 27.8683 28.3332 26.0049V21.3333M21.6665 6.33325L11.6665 16.3333V21.3333H16.6665L26.6665 11.3333M21.6665 6.33325L26.6665 1.33325L31.6665 6.33325L26.6665 11.3333M21.6665 6.33325L26.6665 11.3333" stroke="#1E88E5" stroke-width="2.5" stroke-linecap="round" stroke-linejoin="round"/>
</svg>
